<svg width="298" height="80" xmlns="http://www.w3.org/2000/svg" xmlns:xlink="http://www.w3.org/1999/xlink" xml:space="preserve" overflow="hidden"><defs><clipPath id="clip0"><rect x="0" y="0" width="298" height="80"/></clipPath><clipPath id="clip1"><path d="M249.879 18.7479 269.683 0.547226 296.8 29.718 276.997 47.9187Z"/></clipPath><clipPath id="clip2"><path d="M249.879 18.7479 269.683 0.547226 296.8 29.718 276.997 47.9187Z"/></clipPath><clipPath id="clip3"><path d="M264.09 5.68831 283.894-12.5124 311.007 16.6584 291.203 34.8591Z"/></clipPath><clipPath id="clip4"><path d="M264.09 5.68831 283.894-12.5124 311.007 16.6584 291.203 34.8591Z"/></clipPath></defs><g clip-path="url(#clip0)"><path d="M-49.6524-49.6524 546.177-49.6524 546.177 546.177-49.6524 546.177Z" fill="#FFFFFF" transform="matrix(1.00577 0 0 1 -101.061 -204.295)"/><path d="M-49.6524-49.6524 546.177-49.6524 546.177 546.177-49.6524 546.177Z" fill="#FFFFFF" transform="matrix(1.00577 0 0 1 -101.061 -204.295)"/><g><g clip-path="url(#clip1)"><g clip-path="url(#clip2)"><path d="M382.303 219.79 358.439 218.724C353.825 218.522 353.049 227.501 358.511 227.651L373.36 228.049 372.228 242.992C371.881 247.543 380.757 248.024 381.01 243.4Z" fill="#18CB96" transform="matrix(1.00577 0 0 1 -101.061 -204.295)"/></g></g></g><g><g clip-path="url(#clip3)"><g clip-path="url(#clip4)"><path d="M396.433 206.73 372.564 205.67C367.956 205.463 367.18 214.442 372.642 214.592L387.491 214.995 386.353 229.937C386.011 234.484 394.882 234.965 395.135 230.341Z" fill="#18CB96" transform="matrix(1.00577 0 0 1 -101.061 -204.295)"/></g></g></g><path d="M7.46855-43.2597 20.523-25.4262 33.5981-43.0528C34.1205-43.7148 34.6998-44.2424 35.336-44.6458 35.9825-45.0441 36.6859-45.2458 37.4462-45.2458 38.341-45.2458 39.1427-44.9355 39.8461-44.3148 40.5598-43.7045 41.0046-42.9287 41.1701-41.977 41.3357-41.0357 41.0357-40.0426 40.2805-38.9978L24.7228-18.1852 24.7228-4.26183C24.7228-2.93777 24.2728-1.893 23.378-1.13787 22.4781-0.377565 21.5574 0 20.6058 0 19.4575 0 18.4852-0.377565 17.6887-1.13787 16.887-1.893 16.4887-2.93777 16.4887-4.26183L16.4887-18.1852 0.55859-39.2254C-0.14482-40.2185-0.41377-41.1753-0.248262-42.1011-0.0827541-43.0218 0.377565-43.7769 1.13787-44.3562 1.893-44.9458 2.75157-45.2458 3.70324-45.2458 5.26005-45.2458 6.51688-44.5837 7.46855-43.2597Z" fill="#18CB96" transform="matrix(1.00577 0 0 1 3.26854 67.2187)"/><path d="M33.0396-36.1635C34.2654-36.1635 35.2429-35.817 35.9773-35.1291 36.7221-34.436 37.0945-33.5464 37.0945-32.4603L37.0945-3.70324C37.0945-2.61192 36.7221-1.72232 35.9773-1.03443 35.2429-0.34136 34.2654 0 33.0396 0 31.85 0 30.9293-0.268951 30.2673-0.806852 29.6053-1.3551 29.2018-2.0792 29.0674-2.97915 27.4537-1.7068 25.6434-0.77582 23.647-0.186197 21.6609 0.403427 19.7679 0.703409 17.9783 0.703409 14.5699 0.703409 11.6166-0.0724098 9.12363-1.63439 6.64101-3.1912 4.73767-5.38936 3.4136-8.23403 2.08954-11.0735 1.42751-14.3889 1.42751-18.1852 1.42751-21.8781 2.15678-25.121 3.62049-27.9088 5.09455-30.7069 7.14271-32.8999 9.76498-34.4878 12.3976-36.0704 15.4388-36.8669 18.8886-36.8669 20.404-36.8669 22.085-36.5825 23.9366-36.0187 25.7831-35.4498 27.495-34.555 29.0674-33.3292 29.2432-34.1671 29.6673-34.8498 30.3294-35.3774 30.9914-35.8997 31.8913-36.1635 33.0396-36.1635ZM18.8265-6.45482C20.9057-6.45482 22.9229-6.91513 24.8676-7.84095 26.8123-8.76159 28.1829-10.127 28.9846-11.9373L28.9846-24.2262C28.0847-25.9744 26.7347-27.3192 24.9297-28.2605 23.1349-29.2122 21.3143-29.688 19.4679-29.688 16.4887-29.688 14.0785-28.5967 12.2476-26.4192 10.427-24.2366 9.51672-21.4747 9.51672-18.1231 9.51672-14.6164 10.3649-11.7976 12.0614-9.66154 13.7682-7.52028 16.0233-6.45482 18.8265-6.45482Z" fill="#18CB96" transform="matrix(1.00577 0 0 1 44.6433 67.2187)"/><path d="M21.7436-36.8669C25.2452-36.8669 28.3071-36.0911 30.9293-34.5498 33.5619-33.0189 35.6049-30.8673 37.0531-28.095 38.5013-25.3227 39.2254-22.116 39.2254-18.4748 39.2254-14.6785 38.5013-11.3373 37.0531-8.44091 35.6049-5.55487 33.5981-3.31016 31.0328-1.69646 28.4777-0.0930983 25.4779 0.703409 22.0333 0.703409 20.4196 0.703409 18.661 0.418942 16.7577-0.14482 14.8647-0.708581 13.1424-1.51543 11.5856-2.56538L11.5856 8.31678C11.5856 9.5012 11.1718 10.396 10.3443 11.0063 9.51672 11.6269 8.59608 11.9373 7.59268 11.9373 6.55826 11.9373 5.62728 11.6269 4.79974 11.0063 3.97219 10.396 3.55842 9.5012 3.55842 8.31678L3.55842-32.543C3.55842-33.6706 3.92047-34.555 4.65492-35.1912 5.38418-35.8377 6.39275-36.1635 7.67544-36.1635 9.79601-36.1635 11.0528-35.336 11.4407-33.6809 13.0958-34.8653 14.8181-35.6929 16.6129-36.1635 18.4179-36.629 20.1299-36.8669 21.7436-36.8669ZM21.8057-6.45482C24.6038-6.45482 26.8537-7.55648 28.5501-9.76498 30.257-11.9683 31.1155-14.844 31.1155-18.3921 31.1155-21.754 30.2052-24.4797 28.3846-26.5641 26.5641-28.6432 24.1538-29.688 21.1643-29.688 19.2714-29.688 17.4249-29.2018 15.6198-28.2398 13.8251-27.2726 12.4803-25.8865 11.5856-24.0814L11.5856-12.289C12.3407-10.4374 13.6855-9.00467 15.6198-7.98577 17.5645-6.96168 19.6231-6.45482 21.8057-6.45482Z" fill="#18CB96" transform="matrix(1.00577 0 0 1 85.9466 67.2187)"/><path d="M10.5925-3.55842C10.5925-2.60675 10.1994-1.76887 9.41327-1.05511 8.62711-0.351705 7.66509 0 6.53757 0 5.34798 0 4.37562-0.351705 3.62049-1.05511 2.86019-1.76887 2.48262-2.60675 2.48262-3.55842L2.48262-42.4115C2.48262-43.3631 2.86019-44.1907 3.62049-44.8941 4.37562-45.6078 5.34798-45.9699 6.53757-45.9699 7.66509-45.9699 8.62711-45.6078 9.41327-44.8941 10.1994-44.1907 10.5925-43.3631 10.5925-42.4115Z" fill="#373643" transform="matrix(1.00577 0 0 1 127.538 67.2187)"/><path d="M34.8808-36.1635C36.1066-36.1635 37.0997-35.7808 37.86-35.0257 38.6151-34.2654 38.9978-33.3189 38.9978-32.1913L38.9978-3.62049C38.9978-2.4309 38.553-1.53095 37.6738-0.910295 36.8049-0.299983 35.8997 0 34.9636 0 33.9136 0 32.9775-0.315499 32.1499-0.951672 31.3224-1.59819 30.9086-2.51365 30.9086-3.70324L30.9086-3.97219C28.9639-2.0792 26.9468-0.827541 24.8676-0.206885 22.7832 0.398254 20.8385 0.703409 19.0334 0.703409 14.1096 0.703409 10.2718-0.848229 7.53062-3.95151 4.78422-7.05478 3.4136-11.2546 3.4136-16.5508L3.4136-32.1913C3.4136-33.2775 3.76531-34.2085 4.46872-34.9843 5.18247-35.7704 6.18587-36.1635 7.46855-36.1635 8.69435-36.1635 9.67188-35.7704 10.4063-34.9843 11.1356-34.2085 11.5028-33.2775 11.5028-32.1913L11.5028-16.406C11.5028-13.3286 12.1959-10.8873 13.5924-9.08226 14.9992-7.28753 17.218-6.39275 20.2541-6.39275 21.1488-6.39275 22.1988-6.64101 23.3987-7.13754 24.609-7.63406 25.7831-8.37885 26.9158-9.3719 28.0588-10.3649 29.0105-11.6321 29.7708-13.1786 30.5259-14.7199 30.9086-16.5353 30.9086-18.6197L30.9086-32.1913C30.9086-33.3189 31.2397-34.2654 31.9017-35.0257 32.5637-35.7808 33.5568-36.1635 34.8808-36.1635Z" fill="#373643" transform="matrix(1.00577 0 0 1 139.257 67.2187)"/><path d="M24.8676-45.9699C28.3691-45.9699 31.612-45.4423 34.5912-44.3975 37.5807-43.3631 40.2392-41.5425 42.5563-38.9358 43.5079-37.8445 43.9217-36.8049 43.7976-35.8118 43.6735-34.8188 43.2183-34.0119 42.4321-33.3913 41.6563-32.7706 40.7409-32.481 39.6806-32.5223 38.6151-32.5741 37.6117-33.1016 36.66-34.0947 34.9067-36.0394 33.0447-37.291 31.0741-37.86 29.1139-38.4393 27.0192-38.7289 24.7848-38.7289 21.8057-38.7289 19.1886-38.072 16.9439-36.7635 14.694-35.4653 12.9407-33.6499 11.689-31.3224 10.4322-29.0053 9.80636-26.2796 9.80636-23.1504 9.80636-19.8403 10.4374-16.9284 11.7097-14.4199 12.9924-11.9062 14.7768-9.96152 17.068-8.58573 19.3696-7.22029 22.0643-6.53757 25.1572-6.53757 27.3761-6.53757 29.5949-7.10133 31.8189-8.23403 34.0533-9.37707 35.8325-10.758 37.1566-12.3717 38.1082-13.4993 39.1323-14.1509 40.2392-14.3165 41.3563-14.482 42.3287-14.2854 43.1562-13.7372 43.9838-13.1993 44.4803-12.4338 44.6458-11.4407 44.8113-10.4477 44.4648-9.33052 43.6114-8.08921 42.339-6.29448 40.684-4.73767 38.6461-3.4136 36.6032-2.08954 34.3947-1.06546 32.0258-0.351705 29.6673 0.351705 27.3295 0.703409 25.0124 0.703409 20.3213 0.703409 16.225-0.289639 12.7234-2.27574 9.21673-4.26183 6.49619-7.03927 4.55147-10.6132 2.60675-14.1975 1.63439-18.3766 1.63439-23.1504 1.63439-27.7536 2.64813-31.762 4.6756-35.1705 6.71342-38.5737 9.5012-41.2219 13.0338-43.1149 16.5612-45.0182 20.5075-45.9699 24.8676-45.9699Z" fill="#373643" transform="matrix(1.00577 0 0 1 182.419 67.2187)"/><path d="M33.0396-36.1635C34.2654-36.1635 35.2429-35.817 35.9773-35.1291 36.7221-34.436 37.0945-33.5464 37.0945-32.4603L37.0945-3.70324C37.0945-2.61192 36.7221-1.72232 35.9773-1.03443 35.2429-0.34136 34.2654 0 33.0396 0 31.85 0 30.9293-0.268951 30.2673-0.806852 29.6053-1.3551 29.2018-2.0792 29.0674-2.97915 27.4537-1.7068 25.6434-0.77582 23.647-0.186197 21.6609 0.403427 19.7679 0.703409 17.9783 0.703409 14.5699 0.703409 11.6166-0.0724098 9.12363-1.63439 6.64101-3.1912 4.73767-5.38936 3.4136-8.23403 2.08954-11.0735 1.42751-14.3889 1.42751-18.1852 1.42751-21.8781 2.15678-25.121 3.62049-27.9088 5.09455-30.7069 7.14271-32.8999 9.76498-34.4878 12.3976-36.0704 15.4388-36.8669 18.8886-36.8669 20.404-36.8669 22.085-36.5825 23.9366-36.0187 25.7831-35.4498 27.495-34.555 29.0674-33.3292 29.2432-34.1671 29.6673-34.8498 30.3294-35.3774 30.9914-35.8997 31.8913-36.1635 33.0396-36.1635ZM18.8265-6.45482C20.9057-6.45482 22.9229-6.91513 24.8676-7.84095 26.8123-8.76159 28.1829-10.127 28.9846-11.9373L28.9846-24.2262C28.0847-25.9744 26.7347-27.3192 24.9297-28.2605 23.1349-29.2122 21.3143-29.688 19.4679-29.688 16.4887-29.688 14.0785-28.5967 12.2476-26.4192 10.427-24.2366 9.51672-21.4747 9.51672-18.1231 9.51672-14.6164 10.3649-11.7976 12.0614-9.66154 13.7682-7.52028 16.0233-6.45482 18.8265-6.45482Z" fill="#373643" transform="matrix(1.00577 0 0 1 227.366 67.2187)"/></g></svg>